# xmcd
#
# Track frame offsets: 
#        150
#        17925
#        35699
#
# Disc length: 711 seconds
#
# Revision: 11
# Processed by: cddbd v1.5.2PL0 Copyright (c) Steve Scherf et al.
# Submitted via: ExactAudioCopy v0.95a5
#
DISCID=2002c503
DTITLE=Slim Thug - Theme Song (Hoggs On Da Grind)
DYEAR=2007
DGENRE=Hip-Hop
TTITLE0=Theme Song (Clean)
TTITLE1=Theme Song (Dirty)
TTITLE2=Theme Song (Instrumental)
EXTD=YEAR: 2002
EXTT0=
EXTT1=
EXTT2=
PLAYORDER=
